# xmcd
#
# Track frame offsets: 
#        150
#        16890
#        32925
#        47502
#        60547
#        73837
#        87507
#        104890
#        122600
#        136692
#
# Disc length: 2054 seconds
#
# Revision: 2
# Processed by: cddbd v1.4PL0 Copyright (c) Steve Scherf et al.
# Submitted via: ExactAudioCopy v0.90b3
#
DISCID=8908040a
DTITLE=Sawyer Brown - Out Going Cattin'
DYEAR=1900
DGENRE=Country
TTITLE0=Lady Of The Evening
TTITLE1=Better Be Some Tears
TTITLE2=Not Ready To Let You Go
TTITLE3=Out Goin' Cattin'
TTITLE4=The House Won't Rock
TTITLE5=New Shoes
TTITLE6=Graveyard Shift
TTITLE7=Night Rockin'
TTITLE8=Savin' The Honey For The Honeymoon
TTITLE9=Gypsies On Parade
EXTD=
EXTT0=
EXTT1=
EXTT2=
EXTT3=
EXTT4=
EXTT5=
EXTT6=
EXTT7=
EXTT8=
EXTT9=
PLAYORDER=
